<?xml version="1.0" standalone="no"?><!DOCTYPE svg PUBLIC "-//W3C//DTD SVG 1.1//EN" "http://www.w3.org/Graphics/SVG/1.1/DTD/svg11.dtd"><svg t="1639392161794" class="icon" viewBox="0 0 1024 1024" version="1.1" xmlns="http://www.w3.org/2000/svg" p-id="23339" width="16" height="16" xmlns:xlink="http://www.w3.org/1999/xlink"><defs><style type="text/css"></style></defs><path d="M524.8 64c4.693333 0 8.533333 3.84 8.533333 8.533333V490.666667h418.133334c4.693333 0 8.533333 3.84 8.533333 8.533333v46.933333a8.533333 8.533333 0 0 1-8.533333 8.533334H533.333333v418.133333a8.533333 8.533333 0 0 1-8.533333 8.533333h-46.933333a8.533333 8.533333 0 0 1-8.533334-8.533333V554.666667H51.2a8.533333 8.533333 0 0 1-8.533333-8.533334v-46.933333c0-4.693333 3.84-8.533333 8.533333-8.533333H469.333333V72.533333c0-4.693333 3.84-8.533333 8.533334-8.533333h46.933333z" fill="#bfbfbf" p-id="23340"></path></svg>