<?xml version="1.0" standalone="no"?><!DOCTYPE svg PUBLIC "-//W3C//DTD SVG 1.1//EN" "http://www.w3.org/Graphics/SVG/1.1/DTD/svg11.dtd"><svg t="1692409194633" class="icon" viewBox="0 0 1024 1024" version="1.1" xmlns="http://www.w3.org/2000/svg" p-id="57505" xmlns:xlink="http://www.w3.org/1999/xlink" width="16" height="16"><path d="M108.8 224v576C108.8 902.4 313.6 960 512 960s403.2-57.6 403.2-160v-576C915.2 12.8 108.8 12.8 108.8 224z m742.4 390.4c0 32-121.6 96-339.2 96s-339.2-64-339.2-96V518.4C249.6 563.2 384 588.8 512 588.8s262.4-25.6 339.2-70.4v96z m0-300.8v108.8c0 32-121.6 96-339.2 96s-339.2-64-339.2-96V313.6h6.4c6.4 6.4 12.8 12.8 19.2 12.8h6.4c12.8 6.4 19.2 6.4 32 12.8 19.2 12.8 32 12.8 44.8 19.2 70.4 19.2 147.2 25.6 230.4 25.6s160-6.4 230.4-25.6c12.8-6.4 25.6-6.4 38.4-12.8 12.8-6.4 25.6-6.4 32-12.8h6.4c12.8-6.4 19.2-12.8 32-19.2-6.4 0 0 0 0 0zM512 128c217.6 0 339.2 64 339.2 96S729.6 320 512 320 172.8 256 172.8 224 294.4 128 512 128z m0 768c-217.6 0-339.2-64-339.2-96V704c76.8 44.8 211.2 70.4 339.2 70.4s262.4-25.6 339.2-70.4v89.6c0 38.4-121.6 102.4-339.2 102.4z" fill="#cdcdcd" p-id="57506"></path></svg>