<?xml version="1.0" standalone="no"?><!DOCTYPE svg PUBLIC "-//W3C//DTD SVG 1.1//EN" "http://www.w3.org/Graphics/SVG/1.1/DTD/svg11.dtd"><svg t="1692408477823" class="icon" viewBox="0 0 1024 1024" version="1.1" xmlns="http://www.w3.org/2000/svg" p-id="29741" xmlns:xlink="http://www.w3.org/1999/xlink" width="16" height="16"><path d="M928 576h-96.32V365.333333l86.826667-86.613333c12.48-12.48 12.48-32.746667 0.106666-45.226667-12.586667-12.586667-32.853333-12.48-45.333333-0.106666L786.453333 320H237.226667l-86.933334-86.613333c-12.48-12.48-32.746667-12.48-45.226666 0.106666-12.48 12.48-12.48 32.746667 0.106666 45.226667l87.146667 86.933333V576H96c-17.706667 0-32 14.293333-32 32s14.293333 32 32 32h96.32v29.653333c-0.213333 1.493333-0.32 2.986667-0.32 4.48 0 50.24 13.546667 97.493333 37.546667 138.986667l-92.053334 92.16c-12.48 12.48-12.48 32.746667 0 45.226667 6.293333 6.293333 14.4 9.386667 22.613334 9.386666s16.426667-3.093333 22.613333-9.386666l85.12-85.226667c58.773333 64.106667 146.346667 104.96 244.16 104.96 97.813333 0 185.493333-40.853333 244.16-104.96l85.226667 85.333333c6.293333 6.293333 14.4 9.386667 22.613333 9.386667s16.426667-3.093333 22.613333-9.386667c12.48-12.48 12.48-32.746667 0-45.226666l-92.16-92.266667c23.893333-41.493333 37.44-88.746667 37.44-138.986667 0-1.493333-0.106667-2.986667-0.32-4.48V640H928c17.706667 0 32-14.293333 32-32s-14.293333-32-32-32zM543.573333 904.533333c0.32-1.706667 0.426667-3.413333 0.426667-5.226666V544c0-17.706667-14.293333-32-32-32s-32 14.293333-32 32v355.413333c0 1.813333 0.106667 3.52 0.426667 5.226667-124.8-13.973333-222.08-109.76-224.426667-226.133333 0.213333-1.386667 0.32-2.773333 0.32-4.16V384h511.36v290.24c0 1.386667 0.106667 2.773333 0.213333 4.16-2.24 116.373333-99.52 212.16-224.32 226.133333z" fill="#cdcdcd" p-id="29742"></path><path d="M352 256h320c10.24 0 19.733333-4.8 25.813333-13.013333 5.973333-8.213333 7.786667-18.773333 4.8-28.48C674.453333 124.48 597.76 64 512 64c-85.866667 0-162.453333 60.48-190.506667 150.506667-3.093333 9.706667-1.28 20.266667 4.8 28.48 5.973333 8.213333 15.466667 13.013333 25.706667 13.013333z m160-128c43.84 0 84.48 24.533333 110.08 64H401.92c25.6-39.466667 66.24-64 110.08-64z" fill="#cdcdcd" p-id="29743"></path></svg>