<?xml version="1.0" standalone="no"?><!DOCTYPE svg PUBLIC "-//W3C//DTD SVG 1.1//EN" "http://www.w3.org/Graphics/SVG/1.1/DTD/svg11.dtd"><svg t="1692408578657" class="icon" viewBox="0 0 1024 1024" version="1.1" xmlns="http://www.w3.org/2000/svg" p-id="33293" xmlns:xlink="http://www.w3.org/1999/xlink" width="16" height="16"><path d="M694.755324 572.918441 329.244676 572.918441c-11.223622 0-20.306488 9.101285-20.306488 20.306488 0 11.232832 9.082866 20.306488 20.306488 20.306488l365.509624 0c11.222599 0 20.306488-9.072633 20.306488-20.306488C715.060789 582.019727 705.977923 572.918441 694.755324 572.918441M572.918441 735.367277 329.244676 735.367277c-11.223622 0-20.306488 9.101285-20.306488 20.306488 0 11.232832 9.082866 20.306488 20.306488 20.306488l243.673765 0c11.222599 0 20.306488-9.072633 20.306488-20.306488C593.224929 744.468562 584.14104 735.367277 572.918441 735.367277M329.244676 288.632723l101.530394 0c11.222599 0 20.306488-9.072633 20.306488-20.306488 0-11.205203-9.082866-20.306488-20.306488-20.306488l-101.530394 0c-11.223622 0-20.306488 9.101285-20.306488 20.306488C308.939211 279.56009 318.021054 288.632723 329.244676 288.632723M674.448836 65.265446l-60.918441 0L227.714282 65.265446c-44.856627 0-81.224929 36.358069-81.224929 81.224929l0 731.019249c0 44.86686 36.368302 81.224929 81.224929 81.224929l568.570413 0c44.856627 0 81.224929-36.358069 81.224929-81.224929L877.509624 329.244676l0-40.611953L674.448836 65.265446zM836.897671 877.509624c0 22.448268-18.204617 40.611953-40.611953 40.611953L227.714282 918.121578c-22.448268 0-40.611953-18.163685-40.611953-40.611953l0-731.019249c0-22.407336 18.163685-40.611953 40.611953-40.611953l365.509624 0L593.223906 308.939211c0 22.417569 18.203594 40.611953 40.611953 40.611953l203.060789 0L836.897671 877.509624 836.897671 877.509624zM633.836883 308.939211 633.836883 105.877399l20.306488 0 182.755324 203.060789L633.836883 308.938188 633.836883 308.939211zM308.939211 430.775071c0 11.233855 9.082866 20.306488 20.306488 20.306488l365.509624 0c11.222599 0 20.306488-9.072633 20.306488-20.306488 0-11.205203-9.082866-20.306488-20.306488-20.306488L329.244676 410.468582C318.021054 410.469606 308.939211 419.570891 308.939211 430.775071" fill="#cdcdcd" p-id="33294"></path></svg>