<?xml version="1.0" standalone="no"?><!DOCTYPE svg PUBLIC "-//W3C//DTD SVG 1.1//EN" "http://www.w3.org/Graphics/SVG/1.1/DTD/svg11.dtd"><svg t="1692409339289" class="icon" viewBox="0 0 1024 1024" version="1.1" xmlns="http://www.w3.org/2000/svg" p-id="68254" xmlns:xlink="http://www.w3.org/1999/xlink" width="16" height="16"><path d="M325.354667 92.501333l-94.4-40.746666-2.624-1.152a97.813333 97.813333 0 0 0-92.864 8.469333l-4.202667 2.986667a95.488 95.488 0 0 0-36.864 57.429333l-0.576 3.029333-1.024 6.4c-8.874667 62.506667 9.642667 137.429333 47.744 193.28l2.112 3.029334-0.469333 1.216a95.872 95.872 0 0 0-3.84 50.069333l1.194666 5.738667c12.586667 57.173333 51.690667 114.496 100.629334 151.850666l4.906666 3.669334v4.48c0.362667 13.482667 3.690667 27.349333 10.581334 40.96 4.928 9.813333 11.008 18.837333 18.346666 28.181333 3.029333 3.882667 6.250667 7.765333 9.642667 11.669333 3.882667 4.458667 7.68 8.618667 11.264 12.416l6.826667 7.061334 5.994666 5.909333 5.845334 5.461333c41.130667 37.376 85.76 55.978667 128.768 61.376l2.922666 0.298667-0.064 1.92a85.546667 85.546667 0 0 0 65.28 83.989333l1.024 0.213334-22.208 67.648c-29.354667 89.301333 86.144 153.493333 146.496 81.429333l212.352-253.589333 2.496-3.114667c32.106667-41.92 17.557333-98.602667-22.08-123.882667l-2.090666-1.301333 18.794666-30.570667 11.328-18.730666 9.898667-16.746667 8.448-14.698667 4.778667-8.597333 1.792-3.349333-1.898667 3.328c22.186667-36.693333 28.842667-84.906667 13.077333-126.186667-15.104-39.616-45.610667-67.797333-87.808-84.992l-8.981333-3.434667-81.493333-28.48-172.672-59.52a2523.52 2523.52 0 0 1-72.042667-26.24l-23.381333-9.002666-17.770667-6.954667a4668.373333 4668.373333 0 0 1-103.189333-42.218667z m-143.061334 37.973334a12.565333 12.565333 0 0 1 12.330667-1.493334l43.84 19.136 57.450667 24.576 44.288 18.432 34.176 13.866667 21.226666 8.469333 28.864 11.264 14.933334 5.717334c18.666667 7.104 37.482667 14.058667 56.042666 20.650666l245.418667 84.864 26.389333 9.344 1.706667 0.618667c24.874667 9.28 37.952 21.930667 44.010667 37.845333 5.610667 14.698667 2.922667 33.834667-4.437334 48.128l-7.488 13.589334-6.677333 11.626666-10.282667 17.450667-20.693333 34.133333-25.536 41.002667-59.029333 92.714667h103.893333L570.368 896l58.090667-176.853333-97.877334-0.64 32.853334-110.933334c-6.314667 2.88-15.210667 6.186667-24.704 9.386667l-11.562667 3.712-11.370667 3.370667c-9.173333 2.624-17.365333 4.650667-22.570666 5.546666l-2.816 0.448-3.584 0.448-4.309334 0.384-4.970666 0.277334-5.546667 0.064c-1.002667 0-1.984 0-3.008-0.042667l-6.4-0.32-6.890667-0.64c-23.68-2.858667-54.613333-12.437333-84.458666-39.210667l-5.205334-4.885333-7.104-7.168-6.485333-6.933333-4.693333-5.290667a239.68 239.68 0 0 1-2.368-2.773333l-4.565334-5.632a88.576 88.576 0 0 1-9.002666-13.589334 10.858667 10.858667 0 0 1 0.064-10.389333 11.562667 11.562667 0 0 1 8.341333-5.909333l202.389333-27.157334-65.749333-1.984-34.922667-1.408-30.08-1.493333-25.130666-1.557333-11.541334-0.853334-10.624-0.917333-9.493333-0.96-8.170667-1.024a146.090667 146.090667 0 0 1-6.677333-1.088c-49.621333-9.429333-107.349333-72.896-118.016-129.365333a11.157333 11.157333 0 0 1 3.008-9.770667c2.922667-2.837333 6.421333-3.84 10.666667-3.349333l71.381333 14.869333 231.509333 49.173333-88.32-29.290666-61.930666-21.098667-48.874667-17.109333-26.197333-9.450667-29.354667-10.965333-15.146667-5.952-8.853333-3.626667-7.701333-3.306667a277.589333 277.589333 0 0 1-3.413334-1.536l-5.802666-2.773333a42.944 42.944 0 0 1-7.317334-4.373333c-44.373333-36.778667-66.794667-114.496-57.984-164.821334a11.029333 11.029333 0 0 1 4.416-6.784z" fill="#cdcdcd" p-id="68255"></path></svg>