<?xml version="1.0" standalone="no"?><!DOCTYPE svg PUBLIC "-//W3C//DTD SVG 1.1//EN" "http://www.w3.org/Graphics/SVG/1.1/DTD/svg11.dtd"><svg t="1692408909785" class="icon" viewBox="0 0 1024 1024" version="1.1" xmlns="http://www.w3.org/2000/svg" p-id="51039" xmlns:xlink="http://www.w3.org/1999/xlink" width="16" height="16"><path d="M888.3 757.4h-53.8c-4.2 0-7.7 3.5-7.7 7.7v61.8H197.1V197.1h629.8v61.8c0 4.2 3.5 7.7 7.7 7.7h53.8c4.2 0 7.7-3.4 7.7-7.7V158.7c0-17-13.7-30.7-30.7-30.7H158.7c-17 0-30.7 13.7-30.7 30.7v706.6c0 17 13.7 30.7 30.7 30.7h706.6c17 0 30.7-13.7 30.7-30.7V765.1c0-4.3-3.5-7.7-7.7-7.7z" p-id="51040" fill="#cdcdcd"></path><path d="M906.9 505.7L765 393.7c-5.3-4.2-13-0.4-13 6.3v76H438c-4.4 0-8 3.6-8 8v56c0 4.4 3.6 8 8 8h314v76c0 6.7 7.8 10.5 13 6.3l141.9-112c4.1-3.2 4.1-9.4 0-12.6z" p-id="51041" fill="#cdcdcd"></path></svg>