<?xml version="1.0" standalone="no"?><!DOCTYPE svg PUBLIC "-//W3C//DTD SVG 1.1//EN" "http://www.w3.org/Graphics/SVG/1.1/DTD/svg11.dtd"><svg t="1639457837337" class="icon" viewBox="0 0 1024 1024" version="1.1" xmlns="http://www.w3.org/2000/svg" p-id="2298" width="16" height="16" xmlns:xlink="http://www.w3.org/1999/xlink"><defs><style type="text/css"></style></defs><path d="M333.985684 353.441684l123.580632-123.957895v499.173053c0 14.228211 11.533474 25.761684 25.761684 25.761684H538.947368a25.761684 25.761684 0 0 0 25.761685-25.761684V225.118316l125.251368 126.652631c22.689684 22.042947 51.092211 27.055158 73.83579 5.066106 22.689684-22.042947 21.018947-52.709053-1.670737-74.752l-210.728421-212.938106C528.707368 47.104 496.909474 48.774737 474.219789 70.763789l-215.740631 209.650527c-22.689684 21.989053-24.414316 52.709053-1.670737 74.752 22.689684 21.989053 54.433684 20.318316 77.177263-1.724632z" fill="#bfbfbf" p-id="2299"></path><path d="M835.368421 431.157895h-161.68421a53.894737 53.894737 0 0 0 0 107.789473h107.789473a53.894737 53.894737 0 0 1 53.894737 53.894737v269.473684a53.894737 53.894737 0 0 1-53.894737 53.894737H242.526316a53.894737 53.894737 0 0 1-53.894737-53.894737v-269.473684a53.894737 53.894737 0 0 1 53.894737-53.894737h107.789473a53.894737 53.894737 0 0 0 0-107.789473H188.631579c-65.589895 0-107.789474 43.708632-107.789474 117.598316v357.645473C80.842105 990.800842 130.533053 1024 188.631579 1024h646.736842c86.393263 0 107.789474-52.762947 107.789474-117.598316v-357.645473C943.157895 478.100211 894.329263 431.157895 835.368421 431.157895z" fill="#bfbfbf" p-id="2300"></path></svg>