<?xml version="1.0" standalone="no"?><!DOCTYPE svg PUBLIC "-//W3C//DTD SVG 1.1//EN" "http://www.w3.org/Graphics/SVG/1.1/DTD/svg11.dtd"><svg t="1639391995699" class="icon" viewBox="0 0 1024 1024" version="1.1" xmlns="http://www.w3.org/2000/svg" p-id="21483" width="16" height="16" xmlns:xlink="http://www.w3.org/1999/xlink"><defs><style type="text/css"></style></defs><path d="M947.942255 886.008182 720.970894 659.243529c48.977481-62.368466 78.178547-140.907217 78.178547-226.249931 0-202.907293-165.033707-367.395578-368.613312-367.395578-203.580628 0-368.616382 164.489308-368.616382 367.395578 0 202.90627 165.035754 367.395578 368.616382 367.395578 85.758176 0 164.673503-29.192879 227.295749-78.146824l226.938616 226.728838c12.769838 12.727882 33.475416 12.727882 46.246277 0l16.925485-16.870226C960.713117 919.374104 960.713117 898.736065 947.942255 886.008182zM430.536129 711.482287c-154.315598 0-279.414781-124.682697-279.414781-278.487665 0-153.805992 125.099183-278.488689 279.414781-278.488689 154.315598 0 279.410688 124.68372 279.410688 278.488689C709.946816 586.79959 584.851727 711.482287 430.536129 711.482287z" p-id="21484" fill="#bfbfbf"></path></svg>