<?xml version="1.0" standalone="no"?><!DOCTYPE svg PUBLIC "-//W3C//DTD SVG 1.1//EN" "http://www.w3.org/Graphics/SVG/1.1/DTD/svg11.dtd"><svg t="1692453782709" class="icon" viewBox="0 0 1024 1024" version="1.1" xmlns="http://www.w3.org/2000/svg" p-id="4054" xmlns:xlink="http://www.w3.org/1999/xlink" width="18" height="18"><path d="M512 51.2a460.8 460.8 0 1 0 0 921.6 460.8 460.8 0 0 0 0-921.6z m0 855.7568a394.9568 394.9568 0 1 1 0-789.9136 394.9568 394.9568 0 0 1 0 789.9136zM512 281.6a120.4736 120.4736 0 0 0-131.6352 125.0816h59.904A65.8432 65.8432 0 0 1 512 336.896c35.5328 0 65.8432 17.7664 65.8432 59.2384 0 30.9248-18.432 45.4144-48.0768 65.8432a116.5312 116.5312 0 0 0-58.5728 98.0992v23.04h59.904v-17.8176c0-35.5328 13.1584-46.08 49.3568-73.728a119.1424 119.1424 0 0 0 63.1808-99.3792A115.2 115.2 0 0 0 512 281.6z m-50.0224 399.872a46.08 46.08 0 0 0 92.16-1.5872 45.4144 45.4144 0 0 0-48.7424-46.08 46.08 46.08 0 0 0-43.4176 47.7184z" p-id="4055" fill="#cdcdcd"></path></svg>