<?xml version="1.0" standalone="no"?><!DOCTYPE svg PUBLIC "-//W3C//DTD SVG 1.1//EN" "http://www.w3.org/Graphics/SVG/1.1/DTD/svg11.dtd"><svg t="1692431068610" class="icon" viewBox="0 0 1024 1024" version="1.1" xmlns="http://www.w3.org/2000/svg" p-id="4004" xmlns:xlink="http://www.w3.org/1999/xlink" width="16" height="16"><path d="M931.392 498.88L94.912 79.488a16 16 0 0 0-22.72 18.112l86.208 352.192c1.28 5.312 5.184 9.6 10.432 11.328l147.648 50.688-147.584 50.688a15.68 15.68 0 0 0-10.24 11.328l-86.4 352.64a16 16 0 0 0 22.72 18.112l836.48-416.96a16.448 16.448 0 0 0 7.168-7.104 16.192 16.192 0 0 0-7.232-21.632zM170.88 826.304l50.304-205.632 295.168-101.248a8 8 0 0 0 0-15.232L221.12 403.008l-50.112-204.8 627.968 314.88-628.16 313.216z" fill="#e6e6e6" p-id="4005"></path></svg>