<?xml version="1.0" standalone="no"?><!DOCTYPE svg PUBLIC "-//W3C//DTD SVG 1.1//EN" "http://www.w3.org/Graphics/SVG/1.1/DTD/svg11.dtd"><svg t="1692408296612" class="icon" viewBox="0 0 1024 1024" version="1.1" xmlns="http://www.w3.org/2000/svg" p-id="13058" xmlns:xlink="http://www.w3.org/1999/xlink" width="13" height="13"><path d="M0 0m30.72 0l0 0q30.72 0 30.72 30.72l0 962.56q0 30.72-30.72 30.72l0 0q-30.72 0-30.72-30.72l0-962.56q0-30.72 30.72-30.72Z" p-id="13059" fill="#cdcdcd"></path><path d="M1024 962.56m0 30.72l0 0q0 30.72-30.72 30.72l-962.56 0q-30.72 0-30.72-30.72l0 0q0-30.72 30.72-30.72l962.56 0q30.72 0 30.72 30.72Z" p-id="13060" fill="#cdcdcd"></path><path d="M1024 1024m-30.72 0l0 0q-30.72 0-30.72-30.72l0-552.96q0-30.72 30.72-30.72l0 0q30.72 0 30.72 30.72l0 552.96q0 30.72-30.72 30.72Z" p-id="13061" fill="#cdcdcd"></path><path d="M0 61.44m0-30.72l0 0q0-30.72 30.72-30.72l552.96 0q30.72 0 30.72 30.72l0 0q0 30.72-30.72 30.72l-552.96 0q-30.72 0-30.72-30.72Z" p-id="13062" fill="#cdcdcd"></path><path d="M562.189194 525.63656m-21.72232-21.72232l0 0q-21.72232-21.72232 0-43.444641l391.001765-391.001765q21.72232-21.72232 43.444641 0l0 0q21.72232 21.72232 0 43.44464l-391.001766 391.001766q-21.72232 21.72232-43.44464 0Z" p-id="13063" fill="#cdcdcd"></path></svg>