<?xml version="1.0" standalone="no"?><!DOCTYPE svg PUBLIC "-//W3C//DTD SVG 1.1//EN" "http://www.w3.org/Graphics/SVG/1.1/DTD/svg11.dtd"><svg t="1692409397887" class="icon" viewBox="0 0 1228 1024" version="1.1" xmlns="http://www.w3.org/2000/svg" p-id="70210" xmlns:xlink="http://www.w3.org/1999/xlink" width="19.1875" height="16"><path d="M1045.84 747.027a153.563 153.563 0 0 0-53.156 21.515 129.094 129.094 0 0 1-58.092 35.1c2.953-19.828 12.783-37.926 27.633-51.3a191.186 191.186 0 0 0 26.452-62.142 56.953 56.953 0 1 1 57.164 56.827zM941.639 610.634a190.814 190.814 0 0 0-61.932-26.747 56.953 56.953 0 1 1 56.953-56.953 155.266 155.266 0 0 0 21.263 53.325 129.666 129.666 0 0 1 34.762 58.346 85.978 85.978 0 0 1-50.878-27.97h-0.21z m-93.826-200.728c-17.17-143.817-166.092-256.5-346.274-256.5-191.954 0-348.132 127.744-348.132 284.85a266.33 266.33 0 0 0 124.369 216.169 351.762 351.762 0 0 0 37.969 24.384l-15.44 61.636c5.568 2.616 10.968 5.4 16.663 7.805l77.963-38.981c11.39 2.953 23.372 4.851 35.268 6.876 7.594 1.35 15.188 2.742 22.993 3.67a401.119 401.119 0 0 0 145.547-8.353 281.011 281.011 0 0 0 11.474 62.185 481.153 481.153 0 0 1-108.675 12.698 472.5 472.5 0 0 1-97.621-10.758L262.46 846.21a31.219 31.219 0 0 1-33.877-3.543 31.64 31.64 0 0 1-10.926-32.316l25.312-101.925A330.075 330.075 0 0 1 90.125 438.256c0-192.29 184.19-348.131 411.413-348.131 215.746 0 392.428 140.653 409.64 319.444a276.919 276.919 0 0 0-29.91-2.953c-11.18 0.422-22.36 1.476-33.456 3.248zM716.399 634.47c18.943-3.797 36.957-11.053 53.157-21.515a129.094 129.094 0 0 1 58.134-35.016 86.358 86.358 0 0 1-27.675 51.216c-12.445 18.984-21.389 40.078-26.451 62.184a56.953 56.953 0 1 1-57.165-56.869z m102.6 137.025c18.816 12.614 39.741 21.727 61.763 27a56.953 56.953 0 1 1-56.953 56.953 154.406 154.406 0 0 0-21.094-53.409 129.558 129.558 0 0 1-34.51-58.514 85.888 85.888 0 0 1 50.794 28.308v-0.338z" p-id="70211" fill="#cdcdcd"></path></svg>