<?xml version="1.0" standalone="no"?><!DOCTYPE svg PUBLIC "-//W3C//DTD SVG 1.1//EN" "http://www.w3.org/Graphics/SVG/1.1/DTD/svg11.dtd"><svg t="1692433208918" class="icon" viewBox="0 0 1024 1024" version="1.1" xmlns="http://www.w3.org/2000/svg" p-id="5949" xmlns:xlink="http://www.w3.org/1999/xlink" width="16" height="16"><path d="M733.04 379.104a264.112 264.112 0 0 0-468.112 41.76 14.336 14.336 0 0 1-17.968 8.16l-20.256-7.008a12.352 12.352 0 0 1-7.456-16.192 312.112 312.112 0 0 1 556.736-48.56l12.704-44.352a16 16 0 0 1 7.632-9.584l24.752-13.712a14.464 14.464 0 0 1 20.912 16.64l-38.128 132.96a11.136 11.136 0 0 1-13.76 7.632l-132.96-38.128a14.464 14.464 0 0 1-3.04-26.56l24.752-13.712a16 16 0 0 1 12.16-1.392l42.032 12.048z m-447.52 280.352a264.112 264.112 0 0 0 468.112-41.76 14.336 14.336 0 0 1 17.968-8.16l20.256 7.008a12.352 12.352 0 0 1 7.44 16.176c-46.368 118.032-160.8 199.072-290.432 199.072-110.96 0-210.768-59.296-266.304-150.432l-12.704 44.288a16 16 0 0 1-7.616 9.584l-24.752 13.712a14.464 14.464 0 0 1-20.928-16.64l38.128-132.96a11.136 11.136 0 0 1 13.76-7.632l132.976 38.128a14.464 14.464 0 0 1 3.04 26.56l-24.768 13.712a16 16 0 0 1-12.16 1.392l-42.016-12.048z" fill="#cdcdcd" p-id="5950"></path></svg>