<?xml version="1.0" standalone="no"?><!DOCTYPE svg PUBLIC "-//W3C//DTD SVG 1.1//EN" "http://www.w3.org/Graphics/SVG/1.1/DTD/svg11.dtd"><svg t="1692411452783" class="icon" viewBox="0 0 1024 1024" version="1.1" xmlns="http://www.w3.org/2000/svg" p-id="73229" xmlns:xlink="http://www.w3.org/1999/xlink" width="13" height="13"><path d="M139.6224 69.8368c-38.5536 0-69.7856 31.232-69.7856 69.7856v744.7552c0 38.5536 31.232 69.7856 69.7856 69.7856h744.7552c38.5536 0 69.7856-31.232 69.7856-69.7856V139.6224c0-38.5536-31.232-69.7856-69.7856-69.7856H139.6224zM884.3776 0A139.6224 139.6224 0 0 1 1024 139.6224v744.7552A139.6224 139.6224 0 0 1 884.3776 1024H139.6224A139.6224 139.6224 0 0 1 0 884.3776V139.6224A139.6224 139.6224 0 0 1 139.6224 0h744.7552z m-169.8816 124.672a34.9184 34.9184 0 0 0-34.9184 34.9184V256a34.9184 34.9184 0 0 0 69.8368 0V159.5904a34.9184 34.9184 0 0 0-34.9184-34.9184zM140.4928 48.128l69.7856 0.3072-1.0752 227.6352c-1.536 20.7872 5.12 37.5808 21.248 53.0944 16.0256 15.4112 38.0928 22.4256 70.8608 20.48l441.6 0.2048c24.6784-2.816 42.0352-10.9056 53.76-24.0128 11.6736-13.1584 17.7152-30.8736 17.664-54.9376V48.2304h69.8368v222.5664c0.0512 40.3968-11.6224 74.752-35.4304 101.4784-23.808 26.7264-57.0368 42.24-101.888 47.104h-443.392c-49.1008 3.0208-90.368-10.0864-121.3952-39.936-30.9248-29.696-45.568-66.7648-42.5984-106.0864l1.024-225.28z" fill="#cdcdcd" p-id="73230"></path></svg>