<?xml version="1.0" standalone="no"?><!DOCTYPE svg PUBLIC "-//W3C//DTD SVG 1.1//EN" "http://www.w3.org/Graphics/SVG/1.1/DTD/svg11.dtd"><svg t="1639460589372" class="icon" viewBox="0 0 1024 1024" version="1.1" xmlns="http://www.w3.org/2000/svg" p-id="7538" width="16" height="16" xmlns:xlink="http://www.w3.org/1999/xlink"><defs><style type="text/css"></style></defs><path d="M608 320C625.664 320 640 305.696 640 288L640 160C640 142.304 625.664 128 608 128 590.336 128 576 142.304 576 160L576 288C576 305.696 590.336 320 608 320L608 320ZM960 896C960 931.328 931.328 960 896 960L128 960C92.672 960 64 931.328 64 896L64 128C64 92.672 92.672 64 128 64L192 64 192 384C192 419.328 220.672 448 256 448L768 448C803.328 448 832 419.328 832 384L832 64 896 64C931.328 64 960 92.672 960 128L960 896 960 896ZM256 64 768 64 768 352C768 369.696 753.664 384 736 384L288 384C270.336 384 256 369.696 256 352L256 64 256 64ZM896 0 128 0C57.312 0 0 57.312 0 128L0 896C0 966.688 57.312 1024 128 1024L896 1024C966.688 1024 1024 966.688 1024 896L1024 128C1024 57.312 966.688 0 896 0L896 0Z" p-id="7539" fill="#bfbfbf"></path></svg>