<?xml version="1.0" standalone="no"?><!DOCTYPE svg PUBLIC "-//W3C//DTD SVG 1.1//EN" "http://www.w3.org/Graphics/SVG/1.1/DTD/svg11.dtd"><svg t="1639391001896" class="icon" viewBox="0 0 1024 1024" version="1.1" xmlns="http://www.w3.org/2000/svg" p-id="15050" width="16" height="16" xmlns:xlink="http://www.w3.org/1999/xlink"><defs><style type="text/css"></style></defs><path d="M153.6 870.4c96 96 224 147.2 358.4 147.2 134.4 0 262.4-51.2 358.4-147.2 96-96 147.2-217.6 147.2-352 0-19.2-19.2-38.4-38.4-38.4s-38.4 19.2-38.4 38.4c0 115.2-44.8 217.6-121.6 294.4-166.4 166.4-435.2 166.4-601.6 0s-166.4-435.2 0-601.6 435.2-166.4 601.6 0c12.8 12.8 25.6 25.6 38.4 44.8l-102.4-6.4c-19.2 0-38.4 12.8-44.8 38.4 0 19.2 12.8 38.4 38.4 44.8l185.6 12.8c12.8 0 25.6-6.4 32-12.8 0 0 6.4 0 6.4-6.4 6.4-6.4 12.8-19.2 12.8-25.6l6.4-185.6c0-19.2-19.2-38.4-38.4-44.8-19.2 0-38.4 19.2-44.8 38.4l-6.4 83.2c-12.8-12.8-25.6-25.6-32-38.4-96-96-224-147.2-358.4-147.2-134.4 0-262.4 51.2-358.4 147.2S6.4 377.6 6.4 512c0 134.4 51.2 262.4 147.2 358.4z" p-id="15051" fill="#bfbfbf"></path><path d="M512 224c-19.2 0-38.4 19.2-38.4 38.4v243.2c0 19.2 19.2 38.4 38.4 38.4h243.2c19.2 0 38.4-19.2 38.4-38.4s-19.2-38.4-38.4-38.4H550.4V262.4c0-19.2-19.2-38.4-38.4-38.4z" p-id="15052" fill="#bfbfbf"></path></svg>