<?xml version="1.0" standalone="no"?><!DOCTYPE svg PUBLIC "-//W3C//DTD SVG 1.1//EN" "http://www.w3.org/Graphics/SVG/1.1/DTD/svg11.dtd"><svg t="1639400086367" class="icon" viewBox="0 0 1024 1024" version="1.1" xmlns="http://www.w3.org/2000/svg" p-id="3325" width="16" height="16" xmlns:xlink="http://www.w3.org/1999/xlink"><defs><style type="text/css"></style></defs><path d="M1008.00076 6.285714q18.857143 13.714286 15.428571 36.571429l-146.285714 877.714286q-2.857143 16.571429-18.285714 25.714285-8 4.571429-17.714286 4.571429-6.285714 0-13.714286-2.857143l-258.857142-105.714286-138.285715 168.571429q-10.285714 13.142857-28 13.142857-7.428571 0-12.571428-2.285714-10.857143-4-17.428572-13.428572T365.715046 987.428571v-199.428571l493.714285-605.142857-610.857142 528.571428-225.714286-92.571428q-21.142857-8-22.857143-31.428572-1.142857-22.857143 18.285714-33.714285L969.143617 5.142857q8.571429-5.142857 18.285714-5.142857 11.428571 0 20.571429 6.285714z" p-id="3326" fill="#bfbfbf"></path></svg>