<?xml version="1.0" standalone="no"?><!DOCTYPE svg PUBLIC "-//W3C//DTD SVG 1.1//EN" "http://www.w3.org/Graphics/SVG/1.1/DTD/svg11.dtd"><svg t="1692408210906" class="icon" viewBox="0 0 1024 1024" version="1.1" xmlns="http://www.w3.org/2000/svg" p-id="6835" xmlns:xlink="http://www.w3.org/1999/xlink" width="16" height="16"><path d="M512 64C264.6 64 64 264.6 64 512s200.6 448 448 448 448-200.6 448-448S759.4 64 512 64z m0 820c-205.4 0-372-166.6-372-372 0-89 31.3-170.8 83.5-234.8l523.3 523.3C682.8 852.7 601 884 512 884z m288.5-137.2L277.2 223.5C341.2 171.3 423 140 512 140c205.4 0 372 166.6 372 372 0 89-31.3 170.8-83.5 234.8z" p-id="6836" fill="#cdcdcd"></path></svg>