<?xml version="1.0" standalone="no"?><!DOCTYPE svg PUBLIC "-//W3C//DTD SVG 1.1//EN" "http://www.w3.org/Graphics/SVG/1.1/DTD/svg11.dtd"><svg t="1692409224595" class="icon" viewBox="0 0 1025 1024" version="1.1" xmlns="http://www.w3.org/2000/svg" p-id="59440" xmlns:xlink="http://www.w3.org/1999/xlink" width="16.015625" height="16"><path d="M1016.32 570.88c-30.72-110.08-112.64-179.2-240.64-207.36-28.16-5.12-40.96-12.8-46.08-38.4-2.56-20.48-15.36-38.4-25.6-53.76-69.12-110.08-179.2-168.96-320-176.64l0 0c-102.4 2.56-179.2 23.04-243.2 69.12-110.08 79.36-153.6 179.2-133.12 299.52 12.8 66.56 48.64 122.88 115.2 176.64 12.8 10.24 15.36 17.92 10.24 30.72-7.68 20.48-15.36 40.96-20.48 66.56-2.56 7.68 0 20.48 5.12 28.16 5.12 5.12 20.48 0 25.6 0C153.6 755.2 166.4 750.08 181.76 742.4c15.36-7.68 33.28-17.92 51.2-25.6 7.68-2.56 20.48-5.12 30.72-5.12 53.76 2.56 97.28 5.12 138.24 10.24 5.12 0 12.8 7.68 17.92 12.8 56.32 112.64 186.88 179.2 314.88 161.28 66.56-10.24 110.08 0 153.6 28.16 5.12 5.12 12.8 5.12 20.48 5.12 2.56 0 7.68 0 10.24 0l5.12 0 0-5.12c0-2.56 0-5.12 0-7.68 0-7.68 2.56-15.36 0-20.48-20.48-40.96-12.8-69.12 25.6-102.4C1013.76 732.16 1039.36 652.8 1016.32 570.88zM166.4 691.2c2.56-10.24 5.12-20.48 10.24-30.72 10.24-20.48 5.12-35.84-15.36-51.2-58.88-43.52-92.16-89.6-104.96-148.48-23.04-102.4 12.8-189.44 104.96-256 58.88-43.52 133.12-64 204.8-64 104.96 0 212.48 43.52 276.48 125.44 12.8 17.92 23.04 38.4 35.84 61.44 5.12 7.68 7.68 17.92 12.8 28.16-107.52 7.68-194.56 51.2-248.32 122.88-43.52 56.32-58.88 128-43.52 199.68-7.68 0-15.36 0-25.6 0-23.04 0-43.52 0-61.44-5.12C261.12 660.48 222.72 665.6 186.88 691.2c-5.12 2.56-10.24 5.12-17.92 7.68-2.56 0-2.56 2.56-5.12 2.56C163.84 698.88 166.4 693.76 166.4 691.2zM931.84 734.72c-17.92 23.04-35.84 40.96-51.2 53.76-23.04 17.92-28.16 35.84-17.92 61.44 2.56 2.56 2.56 7.68 2.56 10.24 0 2.56 0 2.56 0 5.12l0 0c-20.48-20.48-43.52-25.6-64-25.6-15.36 0-28.16 2.56-43.52 5.12-7.68 0-15.36 2.56-20.48 2.56-102.4 12.8-189.44-23.04-250.88-99.84-64-79.36-56.32-192 23.04-266.24 53.76-51.2 133.12-79.36 212.48-76.8 79.36 5.12 153.6 38.4 204.8 97.28C983.04 570.88 988.16 663.04 931.84 734.72z" p-id="59441" fill="#cdcdcd"></path><path d="M248.32 304.64m-43.52 0a1.7 1.7 0 1 0 87.04 0 1.7 1.7 0 1 0-87.04 0Z" p-id="59442" fill="#cdcdcd"></path><path d="M499.2 304.64m-43.52 0a1.7 1.7 0 1 0 87.04 0 1.7 1.7 0 1 0-87.04 0Z" p-id="59443" fill="#cdcdcd"></path><path d="M611.84 550.4m-33.28 0a1.3 1.3 0 1 0 66.56 0 1.3 1.3 0 1 0-66.56 0Z" p-id="59444" fill="#cdcdcd"></path><path d="M808.96 550.4m-33.28 0a1.3 1.3 0 1 0 66.56 0 1.3 1.3 0 1 0-66.56 0Z" p-id="59445" fill="#cdcdcd"></path></svg>